<svg width="22" height="16" viewBox="0 0 22 16" fill="none" xmlns="http://www.w3.org/2000/svg">
<path fill-rule="evenodd" clip-rule="evenodd" d="M10.93 14.6355V16C10.93 16 10.3654 15.8424 9.61317 15.657C8.85191 15.4695 7.89857 15.2536 7.14403 15.144C5.33496 14.8813 2.82946 14.9629 1.31687 15.0504C0.520989 15.0964 0 15.144 0 15.144V13.8222V1.31687V0H1.31687H2.30409H2.96252H4.80614H5.46458H8.62552C9.89827 0 10.93 1.03177 10.93 2.30453V14.6355ZM2.96252 1.31687H4.80614V4.91016L4.26693 4.52517L3.88433 4.25201L3.50173 4.52517L2.96252 4.91016V1.31687ZM2.30409 1.31687V5.38026V6.1893L2.96252 5.71919L3.88433 5.06104L4.80614 5.71919L5.46458 6.1893V5.38026V1.31687H8.62552C9.17098 1.31687 9.61317 1.75906 9.61317 2.30453V14.3019C8.89816 14.1307 8.04649 13.9444 7.33326 13.8408C5.83002 13.6226 3.9458 13.627 2.49088 13.6776C2.06358 13.6925 1.66611 13.7116 1.31687 13.7313V1.31687H2.30409ZM10.9954 14.6355V16C10.9954 16 11.5601 15.8424 12.3123 15.657C13.0736 15.4695 14.0269 15.2536 14.7814 15.144C16.5905 14.8813 19.096 14.9629 20.6086 15.0504C21.4045 15.0964 21.9255 15.144 21.9255 15.144V13.8222V1.31687V0H20.6086H13.3C12.0272 0 10.9954 1.03177 10.9954 2.30453V14.6355ZM12.3123 14.3019V2.30453C12.3123 1.75906 12.7545 1.31687 13.3 1.31687H20.6086V13.7313C20.2594 13.7116 19.8619 13.6925 19.4346 13.6776C17.9797 13.627 16.0955 13.6226 14.5922 13.8408C13.879 13.9444 13.0273 14.1307 12.3123 14.3019Z" fill="black"/>
</svg>
