<svg width="21" height="19" viewBox="0 0 21 19" fill="none" xmlns="http://www.w3.org/2000/svg">
<path fill-rule="evenodd" clip-rule="evenodd" d="M4.73407 14.3153L3.12607 16.08V13.6926V13.6144V12.0064H2.144C0.959902 12.0064 0 11.0465 0 9.86241V2.144C0 0.959903 0.959902 0 2.144 0H15.0478C16.2319 0 17.1918 0.959902 17.1918 2.144V9.86241C17.1918 11.0465 16.2319 12.0064 15.0478 12.0064H6.83794L4.73407 14.3153ZM4.73407 10.3984V11.9279L5.64936 10.9234L6.12771 10.3984H6.83794H15.0478C15.3438 10.3984 15.5838 10.1584 15.5838 9.86241V2.144C15.5838 1.84798 15.3438 1.608 15.0478 1.608H2.144C1.84798 1.608 1.608 1.84798 1.608 2.144V9.86241C1.608 10.1584 1.84798 10.3984 2.144 10.3984H3.12607H4.73407ZM8.59513 13.6144V14.5135C8.59513 15.3679 9.28779 16.0606 10.1422 16.0606H16.0662L17.5843 17.7266L18.7447 19V17.2773V17.2209V16.0606H19.4535C20.3079 16.0606 21.0006 15.3679 21.0006 14.5135V8.94394C21.0006 8.08951 20.3079 7.39685 19.4535 7.39685H19.1462V7.39932C19.1298 7.39767 19.1132 7.39682 19.0964 7.39682C18.7997 7.39682 18.5592 7.66079 18.5592 7.98642C18.5592 8.31205 18.7997 8.57602 19.0964 8.57602C19.1431 8.57602 19.1885 8.56947 19.2317 8.55717H19.4535C19.6671 8.55717 19.8403 8.73033 19.8403 8.94394V14.5135C19.8403 14.7271 19.6671 14.9002 19.4535 14.9002H18.7447H17.5843V16.0039L16.9239 15.2791L16.5787 14.9002H16.0662H10.1422C9.92861 14.9002 9.75545 14.7271 9.75545 14.5135V13.6144H8.59513Z" fill="black"/>
</svg>
