<svg width="31" height="18" viewBox="0 0 31 18" fill="none" xmlns="http://www.w3.org/2000/svg">
<path fill-rule="evenodd" clip-rule="evenodd" d="M15.8493 8.37135C17.4857 8.37135 18.8122 7.04482 18.8122 5.40845C18.8122 3.77209 17.4857 2.44556 15.8493 2.44556C14.2129 2.44556 12.8864 3.77209 12.8864 5.40845C12.8864 7.04482 14.2129 8.37135 15.8493 8.37135ZM12.6129 9.40601C11.8048 9.40601 11.0356 9.75242 10.5 10.3575L9.91343 11.0201C8.56476 12.5436 9.22293 14.9504 11.1592 15.5757L15.2757 16.905C15.8029 17.0752 16.3684 17.0865 16.902 16.9375L20.5497 15.9186C22.4558 15.3861 23.2359 13.1082 22.0565 11.519L21.3343 10.5461C20.802 9.82886 19.9616 9.40601 19.0684 9.40601H12.6129Z" fill="black"/>
<path fill-rule="evenodd" clip-rule="evenodd" d="M26.2573 2.9629C26.2573 4.07978 25.3519 4.98519 24.235 4.98519C23.1182 4.98519 22.2127 4.07978 22.2127 2.9629C22.2127 1.84601 23.1182 0.940602 24.235 0.940602C25.3519 0.940602 26.2573 1.84601 26.2573 2.9629ZM27.1979 2.9629C27.1979 4.59926 25.8714 5.92579 24.235 5.92579C22.5987 5.92579 21.2721 4.59926 21.2721 2.9629C21.2721 1.32653 22.5987 0 24.235 0C25.8714 0 27.1979 1.32653 27.1979 2.9629ZM20.9986 7.90106H27.4542C28.0496 7.90106 28.6099 8.18296 28.9648 8.66109L29.6869 9.63406C30.4732 10.6935 29.9531 12.2121 28.6824 12.5671L25.0347 13.586C24.679 13.6854 24.3019 13.6778 23.9505 13.5643L19.834 12.2351C18.5431 11.8182 18.1044 10.2137 19.0035 9.19796L19.59 8.53536C19.9471 8.13199 20.4599 7.90106 20.9986 7.90106ZM18.8857 7.9119C19.4213 7.30686 20.1906 6.96045 20.9986 6.96045H27.4542C28.3473 6.96045 29.1878 7.3833 29.7201 8.10051L30.4422 9.07348C31.6217 10.6626 30.8415 12.9406 28.9355 13.473L25.2877 14.4919C24.7542 14.641 24.1886 14.6297 23.6614 14.4594L19.545 13.1301C17.6087 12.5049 16.9505 10.0981 18.2992 8.57451L18.8857 7.9119Z" fill="black"/>
<path fill-rule="evenodd" clip-rule="evenodd" d="M8.66846 2.9629C8.66846 4.07978 7.76305 4.98519 6.64617 4.98519C5.52928 4.98519 4.62387 4.07978 4.62387 2.9629C4.62387 1.84601 5.52928 0.940602 6.64617 0.940602C7.76305 0.940602 8.66846 1.84601 8.66846 2.9629ZM9.60906 2.9629C9.60906 4.59926 8.28253 5.92579 6.64617 5.92579C5.0098 5.92579 3.68327 4.59926 3.68327 2.9629C3.68327 1.32653 5.0098 0 6.64617 0C8.28253 0 9.60906 1.32653 9.60906 2.9629ZM3.40975 7.90106H9.8653C10.4607 7.90106 11.021 8.18296 11.3759 8.66109L12.098 9.63406C12.8843 10.6935 12.3642 12.2121 11.0935 12.5671L7.4458 13.586C7.09011 13.6854 6.71305 13.6778 6.36162 13.5643L2.24513 12.2351C0.954271 11.8182 0.515494 10.2137 1.41461 9.19796L2.00115 8.53536C2.35821 8.13199 2.87106 7.90106 3.40975 7.90106ZM1.29685 7.9119C1.83244 7.30686 2.60171 6.96045 3.40975 6.96045H9.8653C10.7585 6.96045 11.5989 7.3833 12.1312 8.10051L12.8533 9.07348C14.0328 10.6626 13.2526 12.9406 11.3466 13.473L7.69885 14.4919C7.16532 14.641 6.59973 14.6297 6.07258 14.4594L1.95609 13.1301C0.019804 12.5049 -0.638365 10.0981 0.710306 8.57451L1.29685 7.9119Z" fill="black"/>
</svg>
