<svg width="28" height="19" viewBox="0 0 28 19" fill="none" xmlns="http://www.w3.org/2000/svg">
<mask id="path-1-inside-1_601_64" fill="white">
<path fill-rule="evenodd" clip-rule="evenodd" d="M15.9919 18.1999C22.6193 18.1999 27.9919 14.1257 27.9919 9.09997C27.9919 4.07419 22.6193 0 15.9919 0C9.36455 0 3.99199 4.07419 3.99199 9.09997C3.99199 11.0288 4.78332 12.8175 6.13323 14.2894C5.77761 14.7953 5.30927 15.3425 4.79326 15.6364C3.332 16.4686 0 16.1169 0 16.1169C0 16.1169 3.87344 17.8015 6.20915 17.9508C7.72026 18.0473 9.53919 17.562 10.5867 17.2267C12.2111 17.8492 14.0475 18.1999 15.9919 18.1999Z"/>
</mask>
<path d="M6.13323 14.2894L7.60577 15.3246L8.43853 14.1401L7.45984 13.0729L6.13323 14.2894ZM4.79326 15.6364L3.90248 14.0723L3.90248 14.0723L4.79326 15.6364ZM0 16.1169L0.188956 14.3268L-0.7179 17.7675L0 16.1169ZM6.20915 17.9508L6.32394 16.1544L6.32394 16.1544L6.20915 17.9508ZM10.5867 17.2267L11.2309 15.5459L10.6403 15.3196L10.0379 15.5124L10.5867 17.2267ZM26.1919 9.09997C26.1919 10.9278 25.2193 12.7128 23.3896 14.1004C21.5586 15.4888 18.9492 16.3999 15.9919 16.3999V19.9999C19.6621 19.9999 23.0526 18.874 25.5648 16.9689C28.0783 15.0629 29.7919 12.2979 29.7919 9.09997H26.1919ZM15.9919 1.8C18.9492 1.8 21.5586 2.71111 23.3896 4.09956C25.2193 5.48709 26.1919 7.27213 26.1919 9.09997H29.7919C29.7919 5.90204 28.0783 3.13709 25.5648 1.23108C23.0526 -0.674013 19.6621 -1.8 15.9919 -1.8V1.8ZM5.79199 9.09997C5.79199 7.27213 6.76462 5.48709 8.59433 4.09956C10.4253 2.71111 13.0347 1.8 15.9919 1.8V-1.8C12.3218 -1.8 8.93126 -0.674013 6.41906 1.23108C3.90564 3.13709 2.19199 5.90204 2.19199 9.09997H5.79199ZM7.45984 13.0729C6.36623 11.8803 5.79199 10.5118 5.79199 9.09997H2.19199C2.19199 11.5458 3.20041 13.7546 4.80661 15.506L7.45984 13.0729ZM5.68404 17.2005C6.55769 16.703 7.21328 15.883 7.60577 15.3246L4.66069 13.2543C4.34193 13.7077 4.06085 13.9821 3.90248 14.0723L5.68404 17.2005ZM0 16.1169C-0.188956 17.9069 -0.188687 17.9069 -0.188406 17.907C-0.188295 17.907 -0.187999 17.907 -0.187777 17.907C-0.187333 17.9071 -0.186836 17.9071 -0.186288 17.9072C-0.185193 17.9073 -0.183893 17.9074 -0.182389 17.9076C-0.179382 17.9079 -0.175564 17.9083 -0.170953 17.9088C-0.161734 17.9097 -0.14934 17.9109 -0.133936 17.9124C-0.103136 17.9153 -0.0602329 17.9193 -0.00652183 17.9239C0.100782 17.933 0.251912 17.9446 0.436407 17.9556C0.803337 17.9775 1.31245 17.9974 1.87718 17.9885C2.43687 17.9796 3.08353 17.942 3.71623 17.8393C4.32443 17.7406 5.04892 17.5622 5.68404 17.2005L3.90248 14.0723C3.80697 14.1266 3.56699 14.2164 3.13947 14.2858C2.73644 14.3512 2.27611 14.3817 1.82014 14.3889C1.36921 14.3961 0.953992 14.3801 0.650508 14.362C0.499795 14.353 0.379197 14.3437 0.298574 14.3368C0.258321 14.3334 0.228212 14.3306 0.209489 14.3288C0.200133 14.3279 0.193638 14.3273 0.190159 14.3269C0.188421 14.3267 0.187438 14.3266 0.18723 14.3266C0.187127 14.3266 0.187217 14.3266 0.187504 14.3266C0.187647 14.3267 0.18784 14.3267 0.188082 14.3267C0.188203 14.3267 0.188422 14.3267 0.188482 14.3268C0.188713 14.3268 0.188956 14.3268 0 16.1169ZM6.32394 16.1544C5.42298 16.0968 4.07361 15.7152 2.82176 15.2783C2.22359 15.0696 1.69278 14.8646 1.31172 14.7118C1.12167 14.6355 0.970106 14.5728 0.867454 14.5297C0.816157 14.5082 0.777164 14.4916 0.751782 14.4808C0.739094 14.4753 0.729816 14.4714 0.724112 14.4689C0.72126 14.4677 0.719303 14.4668 0.718261 14.4664C0.717739 14.4661 0.717447 14.466 0.717386 14.466C0.717355 14.466 0.717383 14.466 0.717468 14.466C0.717511 14.466 0.717619 14.4661 0.71764 14.4661C0.717763 14.4662 0.7179 14.4662 0 16.1169C-0.7179 17.7675 -0.717733 17.7676 -0.717552 17.7676C-0.717471 17.7677 -0.717275 17.7678 -0.717114 17.7678C-0.716793 17.768 -0.716412 17.7681 -0.715973 17.7683C-0.715093 17.7687 -0.713977 17.7692 -0.712628 17.7698C-0.709929 17.771 -0.706295 17.7725 -0.701746 17.7745C-0.69265 17.7784 -0.679892 17.7839 -0.66364 17.7908C-0.631142 17.8047 -0.584636 17.8245 -0.525456 17.8493C-0.407156 17.899 -0.237862 17.969 -0.0282787 18.0531C0.389917 18.2208 0.973449 18.4462 1.63561 18.6773C2.9044 19.1201 4.65961 19.6554 6.09436 19.7471L6.32394 16.1544ZM10.0379 15.5124C9.01251 15.8407 7.47216 16.2278 6.32394 16.1544L6.09436 19.7471C7.96835 19.8668 10.0659 19.2834 11.1355 18.941L10.0379 15.5124ZM15.9919 16.3999C14.2624 16.3999 12.6447 16.0878 11.2309 15.5459L9.94255 18.9075C11.7775 19.6107 13.8326 19.9999 15.9919 19.9999V16.3999Z" fill="black" mask="url(#path-1-inside-1_601_64)"/>
</svg>
