<svg width="23" height="15" viewBox="0 0 23 15" fill="none" xmlns="http://www.w3.org/2000/svg">
<path fill-rule="evenodd" clip-rule="evenodd" d="M16.4138 9.98942L15.666 10.8049L16.3023 11.7101C16.4328 11.8957 16.6014 12.1193 16.8052 12.3439C16.0105 12.2997 15.0924 12.0612 14.4438 11.8536L13.9835 11.7062L13.5322 11.8792C12.4518 12.2933 11.2157 12.5318 9.89403 12.5318C8.33035 12.5318 6.89391 12.1985 5.69378 11.6415L5.64094 11.6944V11.6941L6.63408 10.701L8.60004 8.73505L9.30246 8.03262L8.60004 7.3302L6.63408 5.36424L5.6407 4.37086V5.77571V5.94524C4.34257 6.37709 3.18784 7.12292 2.26657 8.09267C2.15603 7.71922 2.09985 7.33767 2.09985 6.95364C2.09985 5.55692 2.84307 4.1929 4.24123 3.13263C5.64031 2.07166 7.63431 1.37545 9.89403 1.37545C12.1538 1.37545 14.1478 2.07166 15.5468 3.13263C16.945 4.1929 17.6882 5.55692 17.6882 6.95364C17.6882 8.03243 17.2494 9.07818 16.4138 9.98942ZM1.28369 9.3505C0.60592 10.4157 0.165918 11.647 0.038409 12.9697C0.0130001 13.2333 0 13.5005 0 13.7707C0 14.1884 0.0310635 14.5989 0.0910066 14.9999C0.262318 14.5713 0.468572 14.1603 0.706246 13.7707C0.801728 13.6142 0.902281 13.4611 1.00768 13.3116C1.91227 12.029 3.17359 11.0159 4.64732 10.4169C4.96884 10.2862 5.30046 10.1752 5.6407 10.0854V10.2895V11.1178V11.6167C5.12725 11.3742 4.65786 11.0906 4.24123 10.7746C4.19296 10.738 4.14548 10.7011 4.09879 10.6638C3.66366 10.8791 3.25026 11.1317 2.86277 11.4174C4.54484 12.9394 7.07039 13.9073 9.89403 13.9073C11.3799 13.9073 12.7832 13.6393 14.0244 13.1636C14.8249 13.4198 16.2148 13.7907 17.3696 13.7169C17.7585 13.692 18.2033 13.6114 18.661 13.5006C20.3038 13.1029 22.1142 12.3155 22.1142 12.3155C22.1142 12.3155 19.9111 12.5481 18.7048 12.0687C18.6143 12.0327 18.5294 11.9928 18.4515 11.9484C18.0572 11.7238 17.6993 11.3056 17.4275 10.919C18.459 9.79426 19.0637 8.4275 19.0637 6.95364C19.0637 3.11325 14.9583 0 9.89403 0C4.82978 0 0.724397 3.11325 0.724397 6.95364C0.724397 7.79597 0.921895 8.60331 1.28369 9.3505ZM7.89761 8.03262L6.63408 9.29616V8.79581L5.38721 9.12488C3.87484 9.52402 2.5151 10.2962 1.41187 11.337C2.15775 9.24276 3.83908 7.59149 5.95427 6.88783L6.55348 6.68849L7.89761 8.03262Z" fill="#4F30CC"/>
</svg>
