<svg width="16" height="20" viewBox="0 0 16 20" fill="none" xmlns="http://www.w3.org/2000/svg">
<path fill-rule="evenodd" clip-rule="evenodd" d="M5.37985 0H5.86601H9.28403H9.75125L9.92637 0.433171L10.7035 2.35564L14.3187 2.35564C14.8289 2.35564 15.2425 2.76924 15.2425 3.27943C15.2425 3.78962 14.8289 4.20322 14.3187 4.20322L0.923787 4.20322C0.413594 4.20322 4.46016e-08 3.78963 0 3.27943C-4.46016e-08 2.76924 0.413594 2.35564 0.923787 2.35564L4.5278 2.35564L5.21448 0.45718L5.37985 0ZM8.8168 1.38568L9.20891 2.35564L6.00134 2.35564L6.35218 1.38568H8.8168ZM4.41879 18.1524L2.78062 6.78977H7.57565H7.57598H12.371L10.7328 18.1524H7.57598H7.57565H4.41879ZM7.57565 4.9422H1.7141C1.15145 4.9422 0.719479 5.44092 0.799767 5.99781L2.7043 19.208C2.76984 19.6625 3.15936 19.9999 3.61863 19.9999H7.57565H7.57598H11.533C11.9923 19.9999 12.3818 19.6625 12.4473 19.208L14.3519 5.99781C14.4322 5.44092 14.0002 4.9422 13.4375 4.9422H7.57598H7.57565ZM8.03639 9.37645C8.03639 9.12135 7.82959 8.91456 7.57449 8.91456C7.3194 8.91456 7.1126 9.12135 7.1126 9.37645V15.6582C7.1126 15.9133 7.3194 16.1201 7.57449 16.1201C7.82959 16.1201 8.03639 15.9133 8.03639 15.6582V9.37645ZM4.98342 9.00976C5.23693 8.98139 5.46545 9.16389 5.49383 9.41741L6.18667 15.6068C6.21505 15.8603 6.03254 16.0888 5.77902 16.1172C5.52551 16.1456 5.29699 15.9631 5.26861 15.7095L4.57577 9.52017C4.5474 9.26666 4.7299 9.03814 4.98342 9.00976ZM9.65642 9.41741C9.6848 9.16389 9.91332 8.98139 10.1668 9.00976C10.4203 9.03814 10.6029 9.26666 10.5745 9.52017L9.88163 15.7095C9.85325 15.9631 9.62473 16.1456 9.37122 16.1172C9.11771 16.0888 8.9352 15.8603 8.96358 15.6068L9.65642 9.41741Z" fill="#8D8D8D"/>
</svg>
