<svg width="21" height="18" viewBox="0 0 21 18" fill="none" xmlns="http://www.w3.org/2000/svg">
<path fill-rule="evenodd" clip-rule="evenodd" d="M0.790457 8.28718C0.332665 7.4799 0.0712891 6.54662 0.0712891 5.55229C0.0712891 2.48585 2.55713 0 5.62358 0C7.50995 0 9.1766 0.940712 10.18 2.3786C11.1831 0.945619 12.8462 0.00856648 14.7281 0.00856648C17.7921 0.00856648 20.276 2.49243 20.276 5.55643C20.276 6.80185 19.8656 7.95141 19.1727 8.87729C18.9857 9.1883 18.7581 9.48172 18.4899 9.74992L10.3171 17.9228C10.2676 17.9722 10.2006 18 10.1307 18C10.0608 18 9.9937 17.9722 9.94426 17.9228L1.77139 9.74992C1.33877 9.31729 1.01179 8.81903 0.790457 8.28718Z" fill="#653FFD"/>
</svg>
