<svg width="20" height="20" viewBox="0 0 20 20" fill="none" xmlns="http://www.w3.org/2000/svg">
<path fill-rule="evenodd" clip-rule="evenodd" d="M10 17.7401C14.2747 17.7401 17.7401 14.2747 17.7401 10C17.7401 5.72525 14.2747 2.25989 10 2.25989C5.72525 2.25989 2.25989 5.72525 2.25989 10C2.25989 14.2747 5.72525 17.7401 10 17.7401ZM10 20C15.5228 20 20 15.5228 20 10C20 4.47715 15.5228 0 10 0C4.47715 0 0 4.47715 0 10C0 15.5228 4.47715 20 10 20ZM9.94318 3.31313C10.2976 3.31313 10.5849 3.60042 10.5849 3.9548V9.715L14.309 12.2218C14.6029 12.4197 14.6808 12.8185 14.4829 13.1124C14.2851 13.4064 13.8863 13.4843 13.5923 13.2864L9.58772 10.5908C9.58501 10.589 9.58232 10.5872 9.57963 10.5853C9.47916 10.5163 9.4044 10.4236 9.35783 10.3197C9.3328 10.2642 9.31545 10.2044 9.30713 10.1418C9.30274 10.1091 9.30085 10.0761 9.30151 10.043V3.9548C9.30151 3.60042 9.5888 3.31313 9.94318 3.31313Z" fill="white"/>
</svg>
