<svg width="19" height="19" viewBox="0 0 19 19" fill="none" xmlns="http://www.w3.org/2000/svg">
<path fill-rule="evenodd" clip-rule="evenodd" d="M9.5 16.8531C13.561 16.8531 16.8531 13.561 16.8531 9.5C16.8531 5.43899 13.561 2.14689 9.5 2.14689C5.43899 2.14689 2.14689 5.43899 2.14689 9.5C2.14689 13.561 5.43899 16.8531 9.5 16.8531ZM9.5 19C14.7467 19 19 14.7467 19 9.5C19 4.25329 14.7467 0 9.5 0C4.25329 0 0 4.25329 0 9.5C0 14.7467 4.25329 19 9.5 19ZM9.44619 3.14748C9.78286 3.14748 10.0558 3.4204 10.0558 3.75706V9.22964L13.5931 11.6107C13.8724 11.7987 13.9464 12.1775 13.7584 12.4568C13.5704 12.7361 13.1916 12.8101 12.9123 12.6221L9.10514 10.0594C8.92151 9.93577 8.82663 9.72968 8.83661 9.52362V3.75706C8.83661 3.4204 9.10953 3.14748 9.44619 3.14748Z" fill="white"/>
</svg>
