<svg width="110" height="30" viewBox="0 0 110 30" fill="none" xmlns="http://www.w3.org/2000/svg">
<rect width="110" height="30" rx="4" fill="#653FFD"/>
<rect x="4.125" y="4.28577" width="22.9167" height="21.4286" rx="2.85714" fill="#4F30CC"/>
<path fill-rule="evenodd" clip-rule="evenodd" d="M14.7077 8.57138C14.4315 8.57138 14.2077 8.79524 14.2077 9.07138V13.9285H8.97852C8.70237 13.9285 8.47852 14.1524 8.47852 14.4285V15.5714C8.47852 15.8475 8.70237 16.0714 8.97852 16.0714H14.2077V20.9285C14.2077 21.2047 14.4315 21.4285 14.7077 21.4285H15.9993C16.2755 21.4285 16.4993 21.2047 16.4993 20.9285V16.0714H21.7285C22.0047 16.0714 22.2285 15.8475 22.2285 15.5714V14.4285C22.2285 14.1524 22.0047 13.9285 21.7285 13.9285H16.4993V9.07138C16.4993 8.79524 16.2755 8.57138 15.9993 8.57138H14.7077Z" fill="white"/>
<path d="M45.7253 9.19141V19.5H43.9482L39.325 12.1155V19.5H37.5479V9.19141H39.325L43.9624 16.5901V9.19141H45.7253ZM51.0496 19.6416C50.4832 19.6416 49.971 19.5496 49.5132 19.3655C49.0601 19.1767 48.673 18.9147 48.3521 18.5796C48.0358 18.2445 47.7927 17.8503 47.6228 17.3972C47.4529 16.9441 47.3679 16.4556 47.3679 15.9316V15.6484C47.3679 15.049 47.4552 14.5062 47.6299 14.02C47.8045 13.5339 48.0476 13.1185 48.3591 12.7739C48.6707 12.4246 49.0388 12.158 49.4636 11.9739C49.8884 11.7898 50.3486 11.6978 50.8442 11.6978C51.3918 11.6978 51.8709 11.7898 52.2815 11.9739C52.6921 12.158 53.032 12.4176 53.301 12.7527C53.5748 13.0831 53.7778 13.4772 53.9099 13.9351C54.0468 14.3929 54.1152 14.8979 54.1152 15.4502V16.1794H48.1963V14.9546H52.4302V14.8201C52.4207 14.5133 52.3594 14.2253 52.2461 13.9563C52.1375 13.6873 51.97 13.4701 51.7434 13.3049C51.5168 13.1397 51.2148 13.0571 50.8372 13.0571C50.554 13.0571 50.3014 13.1185 50.0796 13.2412C49.8625 13.3592 49.6807 13.5315 49.5344 13.7581C49.3881 13.9846 49.2748 14.2584 49.1946 14.5793C49.1191 14.8956 49.0813 15.252 49.0813 15.6484V15.9316C49.0813 16.2668 49.1261 16.5783 49.2158 16.8662C49.3102 17.1494 49.4471 17.3972 49.6265 17.6096C49.8058 17.822 50.023 17.9896 50.2778 18.1123C50.5327 18.2303 50.823 18.2893 51.1487 18.2893C51.5593 18.2893 51.9251 18.2067 52.2461 18.0415C52.5671 17.8763 52.8455 17.6427 53.0815 17.3406L53.9807 18.2114C53.8155 18.4521 53.6008 18.6834 53.3364 18.9053C53.0721 19.1224 52.7488 19.2994 52.3665 19.4363C51.9889 19.5732 51.5499 19.6416 51.0496 19.6416ZM57.5278 17.8008L59.2979 11.8394H60.3882L60.0908 13.6235L58.3066 19.5H57.3296L57.5278 17.8008ZM56.4871 11.8394L57.8677 17.8291L57.981 19.5H56.8906L54.8162 11.8394H56.4871ZM62.0449 17.7583L63.3831 11.8394H65.0469L62.9795 19.5H61.8892L62.0449 17.7583ZM60.5723 11.8394L62.321 17.73L62.5405 19.5H61.5635L59.7581 13.6165L59.4607 11.8394H60.5723ZM76.0776 16.144H77.8477C77.791 16.819 77.6022 17.4208 77.2813 17.9495C76.9603 18.4734 76.5095 18.8864 75.929 19.1885C75.3484 19.4906 74.6427 19.6416 73.812 19.6416C73.1748 19.6416 72.6013 19.5283 72.0916 19.3018C71.5818 19.0705 71.1452 18.7448 70.7817 18.3247C70.4183 17.8999 70.1398 17.3878 69.9463 16.7883C69.7575 16.1889 69.6631 15.5186 69.6631 14.7776V13.9209C69.6631 13.1798 69.7599 12.5096 69.9534 11.9102C70.1516 11.3107 70.4348 10.7986 70.803 10.3738C71.1711 9.94425 71.6125 9.61621 72.127 9.38965C72.6462 9.16309 73.2291 9.0498 73.8757 9.0498C74.697 9.0498 75.3909 9.20085 75.9573 9.50293C76.5237 9.80501 76.9627 10.2227 77.2742 10.7561C77.5904 11.2895 77.7839 11.9007 77.8547 12.5898H76.0847C76.0375 12.1462 75.9337 11.7662 75.7732 11.45C75.6174 11.1337 75.3862 10.893 75.0793 10.7278C74.7725 10.5579 74.3713 10.4729 73.8757 10.4729C73.4698 10.4729 73.1158 10.5484 72.8137 10.6995C72.5116 10.8505 72.2591 11.0723 72.0562 11.365C71.8532 11.6576 71.6998 12.0187 71.596 12.4482C71.4968 12.873 71.4473 13.3592 71.4473 13.9067V14.7776C71.4473 15.2968 71.4921 15.7688 71.5818 16.1936C71.6762 16.6137 71.8178 16.9748 72.0066 17.2769C72.2001 17.5789 72.4456 17.8126 72.7429 17.9778C73.0403 18.143 73.3967 18.2256 73.812 18.2256C74.3171 18.2256 74.7253 18.1453 75.0369 17.9849C75.3531 17.8244 75.5915 17.5907 75.752 17.2839C75.9172 16.9724 76.0257 16.5924 76.0776 16.144ZM81.1187 8.625V19.5H79.4053V8.625H81.1187ZM87.5969 17.6946V11.8394H89.3103V19.5H87.696L87.5969 17.6946ZM87.8377 16.1016L88.4111 16.0874C88.4111 16.6019 88.3545 17.0763 88.2412 17.5105C88.1279 17.94 87.9533 18.3153 87.7173 18.6362C87.4813 18.9525 87.1792 19.2003 86.811 19.3796C86.4429 19.5543 86.0016 19.6416 85.4871 19.6416C85.1142 19.6416 84.772 19.5873 84.4605 19.4788C84.1489 19.3702 83.8799 19.2026 83.6533 18.9761C83.4315 18.7495 83.2592 18.4545 83.1365 18.0911C83.0138 17.7276 82.9524 17.2934 82.9524 16.7883V11.8394H84.6587V16.8025C84.6587 17.081 84.6917 17.3146 84.7578 17.5034C84.8239 17.6875 84.9136 17.8362 85.0269 17.9495C85.1401 18.0627 85.2723 18.143 85.4233 18.1902C85.5744 18.2374 85.7349 18.261 85.9048 18.261C86.391 18.261 86.7733 18.1666 87.0518 17.9778C87.335 17.7843 87.5356 17.5247 87.6536 17.199C87.7763 16.8733 87.8377 16.5075 87.8377 16.1016ZM91.0662 8.625H92.7725V17.8645L92.6096 19.5H91.0662V8.625ZM97.771 15.5989V15.7476C97.771 16.314 97.7073 16.8355 97.5798 17.3123C97.4571 17.7843 97.2683 18.1949 97.0134 18.5442C96.7633 18.8935 96.4517 19.1649 96.0789 19.3584C95.7107 19.5472 95.2835 19.6416 94.7974 19.6416C94.3206 19.6416 93.9053 19.5519 93.5513 19.3726C93.1973 19.1932 92.8999 18.9383 92.6592 18.6079C92.4232 18.2775 92.232 17.8834 92.0857 17.4255C91.9394 16.9677 91.8355 16.4626 91.7742 15.9104V15.436C91.8355 14.8791 91.9394 14.374 92.0857 13.9209C92.232 13.4631 92.4232 13.0689 92.6592 12.7385C92.8999 12.4034 93.1949 12.1462 93.5442 11.9668C93.8982 11.7874 94.3112 11.6978 94.7832 11.6978C95.2741 11.6978 95.706 11.7922 96.0789 11.981C96.4565 12.1698 96.7703 12.4388 97.0205 12.7881C97.2707 13.1326 97.4571 13.5433 97.5798 14.02C97.7073 14.4967 97.771 15.023 97.771 15.5989ZM96.0647 15.7476V15.5989C96.0647 15.2543 96.0364 14.931 95.9797 14.6289C95.9231 14.3221 95.8287 14.0531 95.6965 13.8218C95.5691 13.5905 95.3945 13.4088 95.1726 13.2766C94.9555 13.1397 94.6841 13.0713 94.3584 13.0713C94.0563 13.0713 93.7967 13.1232 93.5796 13.2271C93.3625 13.3309 93.1807 13.4725 93.0344 13.6519C92.8881 13.8312 92.7725 14.0389 92.6875 14.2749C92.6073 14.5109 92.553 14.7658 92.5247 15.0396V16.321C92.5671 16.675 92.6568 17.0007 92.7937 17.2981C92.9353 17.5907 93.1335 17.8267 93.3884 18.0061C93.6433 18.1807 93.9714 18.2681 94.3726 18.2681C94.6888 18.2681 94.9555 18.2043 95.1726 18.0769C95.3897 17.9495 95.562 17.7725 95.6895 17.5459C95.8216 17.3146 95.916 17.0456 95.9727 16.7388C96.034 16.432 96.0647 16.1016 96.0647 15.7476Z" fill="white"/>
</svg>
