<svg width="110" height="30" viewBox="0 0 110 30" fill="none" xmlns="http://www.w3.org/2000/svg">
<rect width="110" height="30" rx="4" fill="#F3F3F3"/>
<rect x="4.125" y="4.28577" width="22.9167" height="21.4286" rx="2.85714" fill="white"/>
<path fill-rule="evenodd" clip-rule="evenodd" d="M14.7085 8.57141C14.4324 8.57141 14.2085 8.79527 14.2085 9.07141V13.9286H8.97949C8.70335 13.9286 8.47949 14.1524 8.47949 14.4286V15.5714C8.47949 15.8476 8.70335 16.0714 8.97949 16.0714H14.2085V20.9286C14.2085 21.2047 14.4324 21.4286 14.7085 21.4286H16.0002C16.2763 21.4286 16.5002 21.2047 16.5002 20.9286V16.0714H21.7295C22.0056 16.0714 22.2295 15.8476 22.2295 15.5714V14.4286C22.2295 14.1524 22.0056 13.9286 21.7295 13.9286H16.5002V9.07141C16.5002 8.79527 16.2763 8.57141 16.0002 8.57141H14.7085Z" fill="#653FFD"/>
<path d="M45.7253 9.19141V19.5H43.9482L39.325 12.1155V19.5H37.5479V9.19141H39.325L43.9624 16.5901V9.19141H45.7253ZM51.0496 19.6416C50.4832 19.6416 49.971 19.5496 49.5132 19.3655C49.0601 19.1767 48.673 18.9147 48.3521 18.5796C48.0358 18.2445 47.7927 17.8503 47.6228 17.3972C47.4529 16.9441 47.3679 16.4556 47.3679 15.9316V15.6484C47.3679 15.049 47.4552 14.5062 47.6299 14.02C47.8045 13.5339 48.0476 13.1185 48.3591 12.7739C48.6707 12.4246 49.0388 12.158 49.4636 11.9739C49.8884 11.7898 50.3486 11.6978 50.8442 11.6978C51.3918 11.6978 51.8708 11.7898 52.2815 11.9739C52.6921 12.158 53.032 12.4176 53.301 12.7527C53.5748 13.0831 53.7778 13.4772 53.9099 13.9351C54.0468 14.3929 54.1152 14.8979 54.1152 15.4502V16.1794H48.1963V14.9546H52.4302V14.8201C52.4207 14.5133 52.3594 14.2253 52.2461 13.9563C52.1375 13.6873 51.97 13.4701 51.7434 13.3049C51.5168 13.1397 51.2148 13.0571 50.8372 13.0571C50.554 13.0571 50.3014 13.1185 50.0796 13.2412C49.8625 13.3592 49.6807 13.5315 49.5344 13.7581C49.3881 13.9846 49.2748 14.2584 49.1946 14.5793C49.1191 14.8956 49.0813 15.252 49.0813 15.6484V15.9316C49.0813 16.2668 49.1261 16.5783 49.2158 16.8662C49.3102 17.1494 49.4471 17.3972 49.6265 17.6096C49.8058 17.822 50.0229 17.9896 50.2778 18.1123C50.5327 18.2303 50.823 18.2893 51.1487 18.2893C51.5593 18.2893 51.9251 18.2067 52.2461 18.0415C52.5671 17.8763 52.8455 17.6427 53.0815 17.3406L53.9807 18.2114C53.8155 18.4521 53.6007 18.6834 53.3364 18.9053C53.0721 19.1224 52.7488 19.2994 52.3665 19.4363C51.9889 19.5732 51.5499 19.6416 51.0496 19.6416ZM57.5278 17.8008L59.2979 11.8394H60.3882L60.0908 13.6235L58.3066 19.5H57.3296L57.5278 17.8008ZM56.4871 11.8394L57.8677 17.8291L57.981 19.5H56.8906L54.8162 11.8394H56.4871ZM62.0449 17.7583L63.3831 11.8394H65.0469L62.9795 19.5H61.8892L62.0449 17.7583ZM60.5723 11.8394L62.321 17.73L62.5405 19.5H61.5635L59.7581 13.6165L59.4607 11.8394H60.5723ZM73.9041 15.6555H71.2207V14.2466H73.9041C74.3713 14.2466 74.7489 14.1711 75.0369 14.02C75.3248 13.869 75.5348 13.6613 75.667 13.397C75.8039 13.1279 75.8723 12.8211 75.8723 12.4766C75.8723 12.1509 75.8039 11.8464 75.667 11.5632C75.5348 11.2753 75.3248 11.044 75.0369 10.8694C74.7489 10.6947 74.3713 10.6074 73.9041 10.6074H71.7659V19.5H69.9888V9.19141H73.9041C74.7017 9.19141 75.3791 9.33301 75.936 9.61621C76.4977 9.89469 76.9249 10.2817 77.2175 10.7773C77.5102 11.2682 77.6565 11.8299 77.6565 12.4624C77.6565 13.1279 77.5102 13.6991 77.2175 14.1758C76.9249 14.6525 76.4977 15.0183 75.936 15.2732C75.3791 15.5281 74.7017 15.6555 73.9041 15.6555ZM78.6548 15.7546V15.5918C78.6548 15.0396 78.735 14.5274 78.8955 14.0554C79.056 13.5787 79.2873 13.1657 79.5894 12.8164C79.8962 12.4624 80.269 12.1886 80.708 11.9951C81.1517 11.7969 81.652 11.6978 82.209 11.6978C82.7707 11.6978 83.271 11.7969 83.71 11.9951C84.1536 12.1886 84.5289 12.4624 84.8357 12.8164C85.1425 13.1657 85.3761 13.5787 85.5366 14.0554C85.6971 14.5274 85.7773 15.0396 85.7773 15.5918V15.7546C85.7773 16.3069 85.6971 16.819 85.5366 17.291C85.3761 17.763 85.1425 18.176 84.8357 18.53C84.5289 18.8793 84.156 19.1531 83.717 19.3513C83.2781 19.5448 82.7801 19.6416 82.2231 19.6416C81.6615 19.6416 81.1588 19.5448 80.7151 19.3513C80.2761 19.1531 79.9032 18.8793 79.5964 18.53C79.2896 18.176 79.056 17.763 78.8955 17.291C78.735 16.819 78.6548 16.3069 78.6548 15.7546ZM80.3611 15.5918V15.7546C80.3611 16.0992 80.3965 16.4249 80.4673 16.7317C80.5381 17.0385 80.649 17.3075 80.8 17.5388C80.9511 17.7701 81.1446 17.9518 81.3806 18.084C81.6166 18.2161 81.8975 18.2822 82.2231 18.2822C82.5394 18.2822 82.8132 18.2161 83.0444 18.084C83.2804 17.9518 83.474 17.7701 83.625 17.5388C83.776 17.3075 83.887 17.0385 83.9578 16.7317C84.0333 16.4249 84.071 16.0992 84.071 15.7546V15.5918C84.071 15.252 84.0333 14.931 83.9578 14.6289C83.887 14.3221 83.7737 14.0507 83.6179 13.8147C83.4669 13.5787 83.2734 13.3946 83.0374 13.2625C82.8061 13.1256 82.5299 13.0571 82.209 13.0571C81.888 13.0571 81.6095 13.1256 81.3735 13.2625C81.1423 13.3946 80.9511 13.5787 80.8 13.8147C80.649 14.0507 80.5381 14.3221 80.4673 14.6289C80.3965 14.931 80.3611 15.252 80.3611 15.5918ZM91.5051 17.4255C91.5051 17.2556 91.4626 17.1022 91.3777 16.9653C91.2927 16.8237 91.1299 16.6963 90.8892 16.583C90.6532 16.4697 90.3039 16.3659 89.8413 16.2715C89.4354 16.1818 89.0625 16.0756 88.7227 15.9529C88.3875 15.8254 88.0996 15.672 87.8589 15.4927C87.6182 15.3133 87.4317 15.1009 87.2996 14.8555C87.1674 14.61 87.1013 14.3268 87.1013 14.0059C87.1013 13.6943 87.1698 13.3993 87.3066 13.1208C87.4435 12.8424 87.6394 12.5969 87.8943 12.3845C88.1492 12.1721 88.4583 12.0046 88.8218 11.8818C89.1899 11.7591 89.6006 11.6978 90.0537 11.6978C90.6956 11.6978 91.2455 11.8063 91.7034 12.0234C92.1659 12.2358 92.5199 12.5261 92.7654 12.8943C93.0108 13.2577 93.1335 13.6684 93.1335 14.1262H91.4272C91.4272 13.9233 91.3753 13.7345 91.2715 13.5598C91.1724 13.3805 91.0213 13.2365 90.8184 13.1279C90.6154 13.0146 90.3605 12.958 90.0537 12.958C89.7611 12.958 89.518 13.0052 89.3245 13.0996C89.1357 13.1893 88.9941 13.3073 88.8997 13.4536C88.81 13.5999 88.7651 13.7604 88.7651 13.9351C88.7651 14.0625 88.7887 14.1781 88.8359 14.282C88.8879 14.3811 88.9728 14.4731 89.0908 14.5581C89.2088 14.6383 89.3693 14.7139 89.5723 14.7847C89.7799 14.8555 90.0396 14.9239 90.3511 14.99C90.9364 15.1127 91.439 15.2708 91.8591 15.4644C92.2839 15.6532 92.6096 15.8986 92.8362 16.2007C93.0627 16.498 93.176 16.8757 93.176 17.3335C93.176 17.6733 93.1029 17.9849 92.9565 18.2681C92.8149 18.5465 92.6073 18.7896 92.3335 18.9973C92.0597 19.2003 91.7317 19.3584 91.3494 19.4717C90.9718 19.585 90.547 19.6416 90.075 19.6416C89.3811 19.6416 88.7935 19.5189 88.312 19.2734C87.8306 19.0233 87.4648 18.7047 87.2146 18.3176C86.9692 17.9259 86.8464 17.5199 86.8464 17.0999H88.4961C88.515 17.4161 88.6023 17.6686 88.7581 17.8574C88.9185 18.0415 89.1168 18.176 89.3528 18.261C89.5935 18.3412 89.8413 18.3813 90.0962 18.3813C90.403 18.3813 90.6602 18.3412 90.8679 18.261C91.0756 18.176 91.2337 18.0627 91.3423 17.9211C91.4508 17.7748 91.5051 17.6096 91.5051 17.4255ZM98.1816 11.8394V13.0854H93.8628V11.8394H98.1816ZM95.1089 9.96313H96.8152V17.3831C96.8152 17.6191 96.8482 17.8008 96.9143 17.9282C96.9851 18.0509 97.0819 18.1335 97.2046 18.176C97.3273 18.2185 97.4713 18.2397 97.6365 18.2397C97.7545 18.2397 97.8678 18.2327 97.9763 18.2185C98.0849 18.2043 98.1722 18.1902 98.2383 18.176L98.2454 19.4788C98.1038 19.5212 97.9386 19.559 97.7498 19.592C97.5657 19.6251 97.3533 19.6416 97.1125 19.6416C96.7208 19.6416 96.3739 19.5732 96.0718 19.4363C95.7697 19.2947 95.5337 19.0658 95.3638 18.7495C95.1938 18.4333 95.1089 18.0132 95.1089 17.4893V9.96313Z" fill="#653FFD"/>
</svg>
