<svg width="175" height="131" viewBox="0 0 175 131" fill="none" xmlns="http://www.w3.org/2000/svg">
<path d="M2 129H0.952922V130.047L2 130.047L2 129ZM2 64.2906V63.2435H0.952922V64.2906H2ZM59.1707 129L59.1707 130.047H59.1707V129ZM173.512 129V130.047H174.559V129H173.512ZM173.512 64.2906H174.559V63.2435H173.512V64.2906ZM134.351 64.2906V63.2435H133.726L133.429 63.7939L134.351 64.2906ZM122.624 86.0539L122.624 87.101L123.249 87.101L123.545 86.5506L122.624 86.0539ZM116.341 86.0538L116.341 85.0068H116.341V86.0538ZM52.888 86.0538L51.9662 86.5505L52.2628 87.1009H52.888V86.0538ZM41.1607 64.2906L42.0825 63.7939L41.7859 63.2435H41.1607V64.2906ZM3.04708 129V64.2906H0.952922V129H3.04708ZM59.1707 127.953L2 127.953L2 130.047L59.1707 130.047L59.1707 127.953ZM59.1707 130.047H173.512V127.953H59.1707V130.047ZM174.559 129V64.2906H172.465V129H174.559ZM173.512 63.2435H134.351V65.3377H173.512V63.2435ZM133.429 63.7939L121.702 85.5572L123.545 86.5506L135.273 64.7873L133.429 63.7939ZM122.624 85.0068L116.341 85.0068L116.341 87.1009L122.624 87.101L122.624 85.0068ZM52.888 87.1009H116.341V85.0068H52.888V87.1009ZM40.2389 64.7873L51.9662 86.5505L53.8098 85.5571L42.0825 63.7939L40.2389 64.7873ZM2 65.3377H41.1607V63.2435H2V65.3377Z" fill="black"/>
<path d="M2.20898 64.0811L50.3746 41.4642" stroke="black" stroke-width="2.09416" stroke-linecap="round"/>
<path d="M173.512 64.0811L125.346 41.4642" stroke="black" stroke-width="2.09416" stroke-linecap="round"/>
<mask id="path-4-inside-1_512_2" fill="white">
<path fill-rule="evenodd" clip-rule="evenodd" d="M117.565 29.6158L87.9488 0L58.333 29.6158H72.1543V59.0552H103.567V29.6158H117.565Z"/>
</mask>
<path d="M87.9488 0L89.4296 -1.48079L87.9488 -2.96158L86.4681 -1.48079L87.9488 0ZM117.565 29.6158V31.71H122.62L119.045 28.135L117.565 29.6158ZM58.333 29.6158L56.8522 28.135L53.2773 31.71H58.333V29.6158ZM72.1543 29.6158H74.2485V27.5217H72.1543V29.6158ZM72.1543 59.0552H70.0602V61.1493H72.1543V59.0552ZM103.567 59.0552V61.1493H105.661V59.0552H103.567ZM103.567 29.6158V27.5217H101.473V29.6158H103.567ZM86.4681 1.48079L116.084 31.0966L119.045 28.135L89.4296 -1.48079L86.4681 1.48079ZM59.8138 31.0966L89.4296 1.48079L86.4681 -1.48079L56.8522 28.135L59.8138 31.0966ZM72.1543 27.5217H58.333V31.71H72.1543V27.5217ZM74.2485 59.0552V29.6158H70.0602V59.0552H74.2485ZM103.567 56.961H72.1543V61.1493H103.567V56.961ZM101.473 29.6158V59.0552H105.661V29.6158H101.473ZM117.565 27.5217H103.567V31.71H117.565V27.5217Z" fill="black" mask="url(#path-4-inside-1_512_2)"/>
</svg>
