<svg width="24" height="32" viewBox="0 0 24 32" fill="none" xmlns="http://www.w3.org/2000/svg">
<path fill-rule="evenodd" clip-rule="evenodd" d="M14.736 6.93094V11.2449H8.53183V6.93093C8.53183 5.27985 9.91217 3.87758 11.6339 3.87758C13.3556 3.87758 14.736 5.27985 14.736 6.93094ZM4.65426 11.2449V6.93093C4.65426 3.10308 7.80605 0 11.6339 0C15.4617 0 18.6135 3.10309 18.6135 6.93094V11.2449H21.9729C22.6868 11.2449 23.2655 11.8236 23.2655 12.5375V29.9866C23.2655 30.7004 22.6868 31.2791 21.9729 31.2791H1.29253C0.578686 31.2791 0 30.7004 0 29.9866V12.5375C0 11.8236 0.578684 11.2449 1.29253 11.2449H4.65426ZM3.23131 28.0478V14.4763H20.0342V28.0478H3.23131Z" fill="black"/>
</svg>
