<svg width="38" height="34" viewBox="0 0 38 34" fill="none" xmlns="http://www.w3.org/2000/svg">
<path fill-rule="evenodd" clip-rule="evenodd" d="M14.736 7.319V9.34957H18.6135V7.319C18.6135 3.49115 15.4617 0.388062 11.6339 0.388062C7.80605 0.388062 4.65426 3.49114 4.65426 7.31899V13.5719H1.29253C0.578684 13.5719 0 14.1506 0 14.8644V32.3135C0 33.0273 0.578686 33.606 1.29253 33.606H21.9729C22.6868 33.606 23.2655 33.0273 23.2655 32.3135V27H20.0342V30.3747H3.23131V16.8032H20.0342V20H23.2655V14.8644C23.2655 14.1506 22.6868 13.5719 21.9729 13.5719H8.53183V7.31899C8.53183 5.66791 9.91217 4.26564 11.6339 4.26564C13.3556 4.26564 14.736 5.66791 14.736 7.319ZM34.7682 23.6535C34.7682 25.4382 33.3214 26.8849 31.5368 26.8849C29.7522 26.8849 28.3055 25.4382 28.3055 23.6535C28.3055 21.8689 29.7522 20.4222 31.5368 20.4222C33.3214 20.4222 34.7682 21.8689 34.7682 23.6535ZM37.9995 23.6535C37.9995 27.2228 35.1061 30.1162 31.5368 30.1162C28.5255 30.1162 25.9952 28.0566 25.2778 25.2692H17.4488V28.4359H14.2175V25.2692H11.6318V22.0379H25.2778C25.9952 19.2505 28.5255 17.1909 31.5368 17.1909C35.1061 17.1909 37.9995 20.0843 37.9995 23.6535Z" fill="black"/>
</svg>
