<svg width="12" height="11" viewBox="0 0 12 11" fill="none" xmlns="http://www.w3.org/2000/svg">
<path d="M5.66187 0.580534C5.81281 0.321386 6.18719 0.321387 6.33813 0.580534L7.85291 3.18124C7.9082 3.27617 8.00085 3.34349 8.10822 3.36674L11.0497 4.00371C11.3428 4.06718 11.4585 4.42324 11.2587 4.64687L9.25338 6.89117C9.18018 6.97309 9.14479 7.08201 9.15586 7.19131L9.45904 10.1857C9.48925 10.4841 9.18636 10.7041 8.91193 10.5832L6.15779 9.36953C6.05726 9.32523 5.94274 9.32523 5.84221 9.36953L3.08807 10.5832C2.81364 10.7041 2.51075 10.4841 2.54096 10.1857L2.84414 7.19131C2.85521 7.08201 2.81982 6.97309 2.74662 6.89117L0.741294 4.64687C0.541472 4.42324 0.657163 4.06718 0.95027 4.00371L3.89178 3.36674C3.99915 3.34349 4.0918 3.27617 4.14709 3.18124L5.66187 0.580534Z" fill="white"/>
</svg>
