<svg width="68" height="20" viewBox="0 0 68 20" fill="none" xmlns="http://www.w3.org/2000/svg">
<path fill-rule="evenodd" clip-rule="evenodd" d="M10 0C4.47715 0 0 4.47715 0 10C0 15.5228 4.47715 20 10 20H58C63.5228 20 68 15.5228 68 10C68 4.47715 63.5228 0 58 0H10ZM12.5514 12.301C12.6107 12.4515 12.6403 12.6226 12.6403 12.8141C12.6403 13.0604 12.5765 13.2793 12.4488 13.4709C12.3256 13.6624 12.1386 13.8129 11.8878 13.9224C11.6415 14.0273 11.3268 14.0797 10.9437 14.0797C10.6473 14.0797 10.3714 14.0478 10.116 13.9839C9.86058 13.9201 9.63711 13.8197 9.44556 13.6829C9.25857 13.5415 9.11263 13.3614 9.00774 13.1425C8.9074 12.919 8.85723 12.6499 8.85723 12.3352H6.96912C6.96912 12.878 7.08313 13.3523 7.31117 13.7582C7.5392 14.1595 7.84476 14.4924 8.22786 14.757C8.61096 15.0169 9.03738 15.213 9.50713 15.3453C9.98144 15.473 10.4603 15.5368 10.9437 15.5368C11.4865 15.5368 11.9767 15.4753 12.4146 15.3521C12.8569 15.229 13.2355 15.0488 13.5502 14.8117C13.8649 14.5745 14.1066 14.2872 14.2753 13.9497C14.4441 13.6122 14.5284 13.2291 14.5284 12.8004C14.5284 12.3945 14.4577 12.032 14.3164 11.7127C14.1795 11.3935 13.972 11.1061 13.6938 10.8507C13.4202 10.5953 13.0759 10.3673 12.6608 10.1666C12.2504 9.96597 11.7715 9.78355 11.2242 9.61936C10.8822 9.51447 10.5812 9.40957 10.3212 9.30468C10.0658 9.19522 9.85146 9.07892 9.67816 8.95578C9.50485 8.82809 9.37487 8.69355 9.28822 8.55217C9.20157 8.40622 9.15824 8.24204 9.15824 8.05961C9.15824 7.8179 9.21981 7.59898 9.34295 7.40287C9.47064 7.20677 9.65991 7.0517 9.91075 6.93769C10.1661 6.82367 10.4854 6.76666 10.8685 6.76666C11.2653 6.76666 11.5936 6.83507 11.8536 6.97189C12.1181 7.10871 12.3142 7.2957 12.4419 7.53285C12.5742 7.77001 12.6403 8.04365 12.6403 8.35378H14.5148C14.5148 7.77913 14.3665 7.26149 14.0701 6.80087C13.7736 6.34024 13.3541 5.97538 12.8113 5.7063C12.2732 5.43722 11.6347 5.30268 10.8959 5.30268C10.3623 5.30268 9.87426 5.36881 9.43188 5.50107C8.99405 5.63333 8.61324 5.8226 8.28943 6.06888C7.96562 6.31059 7.71479 6.6002 7.53692 6.93769C7.36361 7.27518 7.27696 7.64915 7.27696 8.05961C7.27696 8.47919 7.36133 8.84861 7.53008 9.16786C7.69882 9.48254 7.9337 9.76074 8.2347 10.0025C8.54027 10.2442 8.89372 10.4562 9.29506 10.6387C9.6964 10.8211 10.1297 10.9853 10.5949 11.1312C11.0144 11.2635 11.3565 11.3912 11.621 11.5143C11.8901 11.6329 12.0976 11.756 12.2435 11.8837C12.394 12.0069 12.4967 12.146 12.5514 12.301ZM22.5803 15.4V13.9224H17.86V10.9944H21.8894V9.55095H17.86V6.924H22.5598V5.4395H17.86H17.2854H15.9787V15.4H17.2854H17.86H22.5803ZM28.0121 5.4395H28.4773L32.2193 15.4H30.2217L29.4733 13.1835H25.7537L25.0089 15.4H23.0181L26.7396 5.4395H27.198H28.0121ZM26.2525 11.699H28.9721L27.609 7.66219L26.2525 11.699ZM36.8643 5.4395H33.2454V15.4H35.1267V11.6375H36.924L38.8688 15.4H40.8868V15.3042L38.6894 11.1864C38.9737 11.062 39.2296 10.9114 39.4571 10.7344C39.79 10.479 40.0477 10.1621 40.2301 9.78355C40.4125 9.40501 40.5038 8.95807 40.5038 8.44271C40.5038 7.79053 40.3578 7.24097 40.0659 6.79402C39.774 6.34708 39.3567 6.00959 38.814 5.78156C38.2713 5.55352 37.6214 5.4395 36.8643 5.4395ZM35.1267 10.153H36.8849C37.2725 10.153 37.594 10.0846 37.8494 9.94773C38.1048 9.81091 38.2964 9.62164 38.4241 9.37993C38.5563 9.13821 38.6225 8.86229 38.6225 8.55217C38.6225 8.21924 38.5586 7.93191 38.4309 7.6902C38.3032 7.44392 38.1094 7.25465 37.8494 7.12239C37.5895 6.99013 37.2611 6.924 36.8643 6.924H35.1267V10.153ZM49.8623 12.1232H47.981C47.9399 12.5428 47.8419 12.8939 47.6868 13.1767C47.5363 13.4594 47.3151 13.6738 47.0232 13.8197C46.7359 13.9657 46.3619 14.0387 45.9013 14.0387C45.5228 14.0387 45.1967 13.9657 44.923 13.8197C44.6494 13.6738 44.4259 13.4617 44.2526 13.1835C44.0793 12.9053 43.9516 12.5656 43.8695 12.1642C43.7874 11.7629 43.7464 11.3091 43.7464 10.8029V10.0298C43.7464 9.50078 43.792 9.0356 43.8832 8.63426C43.9744 8.22836 44.1112 7.89087 44.2937 7.62179C44.4761 7.34815 44.7041 7.14292 44.9778 7.0061C45.256 6.86928 45.5775 6.80087 45.9424 6.80087C46.4121 6.80087 46.7884 6.8784 47.0711 7.03346C47.3584 7.18396 47.5728 7.40516 47.7142 7.69704C47.8601 7.98892 47.9513 8.34465 47.9878 8.76424H49.8691C49.8052 8.08926 49.6183 7.49181 49.3081 6.97189C48.998 6.45197 48.5625 6.04379 48.0015 5.74735C47.4405 5.44635 46.7542 5.29584 45.9424 5.29584C45.3175 5.29584 44.752 5.40758 44.2458 5.63105C43.7441 5.85453 43.3131 6.17377 42.9528 6.58879C42.5971 6.99926 42.3235 7.49637 42.1319 8.08014C41.9404 8.6639 41.8446 9.31836 41.8446 10.0435V10.8029C41.8446 11.528 41.9381 12.1825 42.1251 12.7662C42.3121 13.3454 42.5811 13.8425 42.9323 14.2576C43.288 14.668 43.7145 14.985 44.2116 15.2085C44.7133 15.4274 45.2765 15.5368 45.9013 15.5368C46.7131 15.5368 47.4041 15.3909 47.9741 15.099C48.5442 14.8071 48.9889 14.4058 49.3081 13.895C49.6274 13.3796 49.8121 12.789 49.8623 12.1232ZM57.4421 11.0286H53.2007V15.4H51.3194V5.4395H53.2007V9.55095H57.4421V5.4395H59.3234V15.4H57.4421V11.0286Z" fill="#4F30CC"/>
</svg>
