<svg width="21" height="21" viewBox="0 0 21 21" fill="none" xmlns="http://www.w3.org/2000/svg">
<path fill-rule="evenodd" clip-rule="evenodd" d="M16.2401 3.51638L3.19281 9.19507L8.34204 11.1293C8.41023 11.1549 8.47702 11.1833 8.5423 11.2142L16.2401 3.51638ZM9.77895 12.4433C9.81256 12.5132 9.8432 12.5848 9.87069 12.658L11.8049 17.8072L17.5 4.72227L9.77895 12.4433ZM19.7776 0.0751688C20.5035 -0.2408 21.2408 0.496474 20.9248 1.22244L12.5449 20.4761C12.2323 21.1943 11.2048 21.168 10.9294 20.4348L8.23847 13.2711C8.15005 13.0357 7.96431 12.8499 7.72892 12.7615L0.565238 10.0706C-0.167976 9.79517 -0.194277 8.7677 0.523887 8.45513L19.7776 0.0751688Z" fill="#8D8D8D"/>
</svg>
