<svg width="25" height="25" viewBox="0 0 25 25" fill="none" xmlns="http://www.w3.org/2000/svg">
<path fill-rule="evenodd" clip-rule="evenodd" d="M19.3334 4.18617L3.80096 10.9465L9.931 13.2492C10.0122 13.2797 10.0917 13.3134 10.1694 13.3502L19.3334 4.18617ZM11.6416 14.8135C11.6816 14.8966 11.7181 14.9819 11.7508 15.069L14.0535 21.199L20.8333 5.62173L11.6416 14.8135ZM23.5447 0.0894866C24.409 -0.286666 25.2867 0.59104 24.9105 1.45528L14.9344 24.3763C14.5623 25.2313 13.3391 25.2 13.0112 24.3271L9.8077 15.7989C9.70244 15.5187 9.48132 15.2976 9.2011 15.1923L0.672905 11.9888C-0.199971 11.6609 -0.231283 10.4377 0.623674 10.0656L23.5447 0.0894866Z" fill="black"/>
</svg>
