<svg width="11" height="13" viewBox="0 0 11 13" fill="none" xmlns="http://www.w3.org/2000/svg">
<path fill-rule="evenodd" clip-rule="evenodd" d="M5.62323 6.6489L6.02091 6.13883L5.62323 5.62876L1.48383 0.319532C1.20212 -0.0417853 0.680849 -0.106324 0.319532 0.175382C-0.0417854 0.457087 -0.106323 0.978359 0.175381 1.33968L3.9171 6.13883L0.175381 10.938C-0.106323 11.2993 -0.0417854 11.8206 0.319532 12.1023C0.680849 12.384 1.20212 12.3194 1.48383 11.9581L5.62323 6.6489ZM10.6024 6.6489L11.0001 6.13883L10.6024 5.62876L6.46297 0.319532C6.18126 -0.0417853 5.65999 -0.106324 5.29867 0.175382C4.93736 0.457087 4.87282 0.978359 5.15452 1.33968L8.89624 6.13883L5.15452 10.938C4.87282 11.2993 4.93736 11.8206 5.29867 12.1023C5.65999 12.384 6.18126 12.3194 6.46297 11.9581L10.6024 6.6489Z" fill="#653FFD"/>
</svg>
