<svg width="21" height="18" viewBox="0 0 21 18" fill="none" xmlns="http://www.w3.org/2000/svg">
<mask id="path-1-inside-1_596_27" fill="white">
<path fill-rule="evenodd" clip-rule="evenodd" d="M0.731074 8.30807C0.26591 7.49602 0 6.55521 0 5.55229C0 2.48585 2.48585 0 5.55229 0C7.43867 0 9.10533 0.940723 10.1087 2.37863C11.1118 0.945631 12.7749 0.00856648 14.6569 0.00856648C17.7209 0.00856648 20.2048 2.49243 20.2048 5.55643C20.2048 6.79242 19.8006 7.93402 19.1172 8.85624C18.9278 9.17506 18.696 9.47567 18.4218 9.7499L10.2489 17.9228C10.1995 17.9722 10.1324 18 10.0625 18C9.99262 18 9.92558 17.9722 9.87615 17.9228L1.70325 9.7499C1.27629 9.32295 0.952236 8.83207 0.731074 8.30807Z"/>
</mask>
<path d="M0.731074 8.30807L2.19861 7.68867L2.16115 7.59991L2.11326 7.51632L0.731074 8.30807ZM10.1087 2.37863L8.80245 3.29018L10.1067 5.15921L11.4137 3.2921L10.1087 2.37863ZM19.1172 8.85624L17.8374 7.90785L17.789 7.97309L17.7476 8.04289L19.1172 8.85624ZM18.4218 9.7499L19.5481 10.8762L19.5481 10.8762L18.4218 9.7499ZM10.2489 17.9228L9.12255 16.7965L9.12254 16.7965L10.2489 17.9228ZM9.87615 17.9228L11.0025 16.7965L11.0025 16.7965L9.87615 17.9228ZM1.70325 9.7499L2.82959 8.62356L2.82959 8.62356L1.70325 9.7499ZM2.11326 7.51632C1.7825 6.9389 1.59289 6.27015 1.59289 5.55229H-1.59289C-1.59289 6.84027 -1.25068 8.05314 -0.651111 9.09982L2.11326 7.51632ZM1.59289 5.55229C1.59289 3.36558 3.36558 1.59289 5.55229 1.59289V-1.59289C1.60611 -1.59289 -1.59289 1.60611 -1.59289 5.55229H1.59289ZM5.55229 1.59289C6.89614 1.59289 8.0842 2.26091 8.80245 3.29018L11.415 1.46708C10.1265 -0.37946 7.9812 -1.59289 5.55229 -1.59289V1.59289ZM11.4137 3.2921C12.1315 2.26666 13.3166 1.60146 14.6569 1.60146V-1.58433C12.2332 -1.58433 10.0922 -0.375393 8.80379 1.46517L11.4137 3.2921ZM14.6569 1.60146C16.8412 1.60146 18.6119 3.37216 18.6119 5.55643H21.7976C21.7976 1.6127 18.6006 -1.58433 14.6569 -1.58433V1.60146ZM18.6119 5.55643C18.6119 6.43943 18.3244 7.25066 17.8374 7.90785L20.3969 9.80463C21.2768 8.61738 21.7976 7.14542 21.7976 5.55643H18.6119ZM19.5481 10.8762C19.9169 10.5074 20.2302 10.1015 20.4867 9.66959L17.7476 8.04289C17.6254 8.2486 17.4751 8.44389 17.2955 8.62356L19.5481 10.8762ZM11.3752 19.0491L19.5481 10.8762L17.2955 8.62356L9.12255 16.7965L11.3752 19.0491ZM10.0625 19.5929C10.5549 19.5929 11.0271 19.3973 11.3753 19.0491L9.12254 16.7965C9.37185 16.5472 9.70997 16.4071 10.0625 16.4071V19.5929ZM8.74979 19.0491C9.09795 19.3973 9.57016 19.5929 10.0625 19.5929V16.4071C10.4151 16.4071 10.7532 16.5472 11.0025 16.7965L8.74979 19.0491ZM0.576901 10.8762L8.7498 19.0491L11.0025 16.7965L2.82959 8.62356L0.576901 10.8762ZM-0.736461 8.92746C-0.436717 9.63765 0.00210418 10.3015 0.576902 10.8763L2.82959 8.62356C2.55048 8.34445 2.34119 8.02649 2.19861 7.68867L-0.736461 8.92746Z" fill="black" mask="url(#path-1-inside-1_596_27)"/>
</svg>
