<svg width="22" height="22" viewBox="0 0 22 22" fill="none" xmlns="http://www.w3.org/2000/svg">
<path fill-rule="evenodd" clip-rule="evenodd" d="M11 20.35C13.6529 20.35 16.0478 19.2451 17.7495 17.4704C17.788 16.969 17.6557 16.4473 17.3212 15.9967L16.4767 14.8588C16.0617 14.2997 15.4065 13.97 14.7101 13.97H7.16059C6.5306 13.97 5.93085 14.2401 5.51328 14.7118L4.82734 15.4867C4.28321 16.1014 4.15808 16.9005 4.3732 17.5961C5.08759 18.3138 5.9178 18.9161 6.83344 19.3726L9.47895 20.2269C9.97397 20.3079 10.4821 20.35 11 20.35ZM18.2045 15.3411C18.4298 15.6446 18.5939 15.9697 18.7012 16.3038C19.7411 14.7967 20.35 12.9695 20.35 11C20.35 5.83614 16.1639 1.65 11 1.65C5.83614 1.65 1.65 5.83614 1.65 11C1.65 12.938 2.23959 14.7382 3.24919 16.2312C3.36419 15.708 3.61131 15.2008 4.00368 14.7576L4.68963 13.9827C5.31598 13.2751 6.21561 12.87 7.16059 12.87H14.7101C15.7546 12.87 16.7375 13.3645 17.36 14.2033L18.2045 15.3411ZM22 11C22 14.3572 20.4961 17.3631 18.1251 19.3808C17.7721 19.8209 17.3 20.177 16.7283 20.3926C15.0598 21.4124 13.0985 22 11 22C4.92487 22 0 17.0751 0 11C0 4.92487 4.92487 0 11 0C17.0751 0 22 4.92487 22 11ZM13.3096 8.19501C13.3096 9.50117 12.2508 10.56 10.9446 10.56C9.63848 10.56 8.57963 9.50117 8.57963 8.19501C8.57963 6.88886 9.63848 5.83002 10.9446 5.83002C12.2508 5.83002 13.3096 6.88886 13.3096 8.19501ZM14.4096 8.19501C14.4096 10.1087 12.8583 11.66 10.9446 11.66C9.03096 11.66 7.47963 10.1087 7.47963 8.19501C7.47963 6.28135 9.03096 4.73002 10.9446 4.73002C12.8583 4.73002 14.4096 6.28135 14.4096 8.19501Z" fill="black"/>
</svg>
