<svg width="34" height="34" viewBox="0 0 34 34" fill="none" xmlns="http://www.w3.org/2000/svg">
<path fill-rule="evenodd" clip-rule="evenodd" d="M26.9588 21.2803C25.1101 23.2962 22.4544 24.56 19.5036 24.56C16.6049 24.56 13.991 23.3405 12.1471 21.3864C12.1827 21.1834 12.2409 20.9804 12.3232 20.7804L12.8849 19.4153C13.3306 18.3323 14.3859 17.6254 15.557 17.6254H23.6456C24.8672 17.6254 25.9568 18.3937 26.3671 19.5443L26.8523 20.9048C26.8968 21.0294 26.9321 21.1548 26.9588 21.2803ZM28.0257 19.8941L27.7279 19.059C27.1124 17.3331 25.478 16.1807 23.6456 16.1807H15.557C13.8003 16.1807 12.2174 17.2411 11.5489 18.8655L11.0698 20.0298C10.0087 18.4299 9.39061 16.5107 9.39061 14.4471C9.39061 8.86184 13.9183 4.33412 19.5036 4.33412C25.0888 4.33412 29.6165 8.86184 29.6165 14.4471C29.6165 16.4527 29.0327 18.3219 28.0257 19.8941ZM33.9506 14.4471C33.9506 22.426 27.4825 28.8941 19.5036 28.8941C16.1605 28.8941 13.0827 27.7587 10.6347 25.8523L2.53636 33.9506H0V31.3792L8.08295 23.2962C6.18588 20.8514 5.05649 17.7811 5.05649 14.4471C5.05649 6.46817 11.5247 0 19.5036 0C27.4825 0 33.9506 6.46817 33.9506 14.4471ZM22.5372 10.7631C22.5372 12.4786 21.1465 13.8692 19.4311 13.8692C17.7156 13.8692 16.3249 12.4786 16.3249 10.7631C16.3249 9.04763 17.7156 7.65697 19.4311 7.65697C21.1465 7.65697 22.5372 9.04763 22.5372 10.7631ZM23.9819 10.7631C23.9819 13.2764 21.9444 15.3139 19.4311 15.3139C16.9177 15.3139 14.8802 13.2764 14.8802 10.7631C14.8802 8.24974 16.9177 6.21226 19.4311 6.21226C21.9444 6.21226 23.9819 8.24974 23.9819 10.7631Z" fill="black"/>
</svg>
