<svg width="46" height="30" viewBox="0 0 46 30" fill="none" xmlns="http://www.w3.org/2000/svg">
<path fill-rule="evenodd" clip-rule="evenodd" d="M14.5037 27.6236C17.988 27.6236 21.1334 26.1724 23.3685 23.8415C23.419 23.183 23.2452 22.4979 22.8059 21.906L21.6968 20.4116C21.1517 19.6772 20.2911 19.2443 19.3766 19.2443H9.46126C8.63386 19.2443 7.84615 19.599 7.29773 20.2185L6.39683 21.2362C5.68215 22.0436 5.51782 23.0932 5.80043 24.0068C6.73859 24.9493 7.8288 25.7402 9.03119 26.3398L12.5063 27.4619C13.1564 27.5683 13.8236 27.6236 14.5037 27.6236ZM23.966 21.045C24.2619 21.4436 24.4775 21.8705 24.6183 22.3093C25.984 20.33 26.7837 17.9302 26.7837 15.3436C26.7837 8.56149 21.2858 3.06355 14.5037 3.06355C7.72165 3.06355 2.2237 8.56149 2.2237 15.3436C2.2237 17.8889 2.99809 20.2533 4.32411 22.2141C4.47513 21.527 4.7997 20.8608 5.31507 20.2786L6.21597 19.2609C7.0386 18.3316 8.22015 17.7996 9.46126 17.7996H19.3766C20.7484 17.7996 22.0393 18.449 22.8569 19.5506L23.966 21.045ZM28.9508 15.3436C28.9508 19.7526 26.9757 23.7004 23.862 26.3503C23.3982 26.9285 22.7781 27.3964 22.027 27.6796C19.8357 29.0189 17.2598 29.7906 14.5037 29.7906C6.52482 29.7906 0.0566406 23.3225 0.0566406 15.3436C0.0566406 7.36466 6.52482 0.896484 14.5037 0.896484C22.4826 0.896484 28.9508 7.36466 28.9508 15.3436ZM17.5373 11.6596C17.5373 13.375 16.1467 14.7657 14.4312 14.7657C12.7158 14.7657 11.3251 13.375 11.3251 11.6596C11.3251 9.94411 12.7158 8.55345 14.4312 8.55345C16.1467 8.55345 17.5373 9.94411 17.5373 11.6596ZM18.9821 11.6596C18.9821 14.1729 16.9446 16.2104 14.4312 16.2104C11.9179 16.2104 9.8804 14.1729 9.8804 11.6596C9.8804 9.14622 11.9179 7.10875 14.4312 7.10875C16.9446 7.10875 18.9821 9.14622 18.9821 11.6596ZM38.4865 7.68663C38.4865 7.68663 36.3856 8.97275 34.8747 9.27581C33.4918 9.5532 31.263 9.27581 31.263 9.27581C31.263 9.27581 31.1952 9.6944 31.1252 10.383C31.0945 10.6848 31.0634 11.0384 31.0374 11.4313C30.8511 14.2452 30.9256 19.077 33.2855 21.3391C35.4176 23.3829 38.4865 24.5897 38.4865 24.5897C38.4865 24.5897 41.5554 23.3829 43.6874 21.3391C46.0473 19.077 46.1219 14.2452 45.9356 11.4313C45.9096 11.0383 45.8785 10.6847 45.8478 10.3829C45.7778 9.69434 45.71 9.27581 45.71 9.27581C45.71 9.27581 43.4812 9.5532 42.0983 9.27581C40.5874 8.97275 38.4865 7.68663 38.4865 7.68663ZM43.7727 11.5658C43.1162 11.5708 42.3545 11.5374 41.6721 11.4006C40.8431 11.2343 39.9751 10.884 39.2806 10.5601V21.8117C40.2262 21.3004 41.3269 20.5999 42.1878 19.7747C42.6586 19.3234 43.07 18.5717 43.3648 17.4917C43.6549 16.4292 43.7884 15.2093 43.8232 14.0075C43.849 13.1181 43.8198 12.275 43.7727 11.5658ZM37.8359 21.8885V10.4924C37.1199 10.8339 36.1881 11.2226 35.3009 11.4006C34.6185 11.5374 33.8568 11.5708 33.2003 11.5658C33.1531 12.275 33.124 13.1181 33.1498 14.0075C33.1846 15.2093 33.3181 16.4292 33.6082 17.4917C33.903 18.5717 34.3143 19.3234 34.7851 19.7747C35.6525 20.6062 36.7634 21.311 37.7137 21.8232C37.755 21.8454 37.7957 21.8672 37.8359 21.8885Z" fill="black"/>
</svg>
